<?xml version="1.0" encoding="utf-8"?>
<!-- Generator: Adobe Illustrator 25.0.1, SVG Export Plug-In . SVG Version: 6.00 Build 0)  -->
<svg class="sort-svg" version="1.1" id="Layer_1" xmlns="http://www.w3.org/2000/svg" xmlns:xlink="http://www.w3.org/1999/xlink" x="0px" y="0px"
	 viewBox="0 0 700 700" style="enable-background:new 0 0 700 700;" xml:space="preserve">
<style type="text/css">
	.st0{fill-rule:evenodd;clip-rule:evenodd;}
</style>
<g>
	<path class="st0" d="M246,145.6c-4.6,0-8.4,3.8-8.4,8.4v253.2c0,4.6,3.8,8.4,8.4,8.4c4.6,0,8.4-3.8,8.4-8.4V154
		C254.4,149.4,250.7,145.6,246,145.6z"/>
	<path class="st0" d="M153.7,318.1c-3.3,3.3-3.3,8.6,0,11.9l83.6,83.6c3.3,3.3,8.6,3.3,11.9,0s3.3-8.6,0-11.9l-83.6-83.6
		C162.3,314.8,156.9,314.8,153.7,318.1z"/>
	<path class="st0" d="M335.2,318.1c3.3,3.3,3.3,8.6,0,11.9l-83.6,83.6c-3.3,3.3-8.6,3.3-11.9,0s-3.3-8.6,0-11.9l83.6-83.6
		C326.6,314.8,331.9,314.8,335.2,318.1z"/>
	<path class="st0" d="M452.4,415.6c4.6,0,8.4-3.8,8.4-8.4V154c0-4.6-3.8-8.4-8.4-8.4c-4.6,0-8.4,3.8-8.4,8.4v253.2
		C444,411.9,447.8,415.6,452.4,415.6z"/>
	<path class="st0" d="M544.8,243.2c3.3-3.3,3.3-8.6,0-11.9l-83.6-83.6c-3.3-3.3-8.6-3.3-11.9,0c-3.3,3.3-3.3,8.6,0,11.9l83.6,83.6
		C536.2,246.5,541.5,246.5,544.8,243.2z"/>
	<path class="st0" d="M363.2,243.2c-3.3-3.3-3.3-8.6,0-11.9l83.6-83.6c3.3-3.3,8.6-3.3,11.9,0c3.3,3.3,3.3,8.6,0,11.9l-83.6,83.6
		C371.8,246.5,366.5,246.5,363.2,243.2z"/>
</g>
</svg>
